<?xml version="1.0" encoding="UTF-8" standalone="no"?><svg xmlns="http://www.w3.org/2000/svg" xmlns:xlink="http://www.w3.org/1999/xlink" contentStyleType="text/css" height="921px" preserveAspectRatio="none" style="width:792px;height:921px;background:#FFFFFF;" version="1.1" viewBox="0 0 792 921" width="792px" zoomAndPan="magnify"><defs/><g><rect fill="#DDDDDD" height="77.9531" id="_legend" rx="7.5" ry="7.5" style="stroke:#000000;stroke-width:1.0;" width="366" x="18" y="18"/><text fill="#000000" font-family="sans-serif" font-size="14" lengthAdjust="spacing" textLength="93" x="24" y="37.5352">Green: Object</text><text fill="#000000" font-family="sans-serif" font-size="14" lengthAdjust="spacing" textLength="174" x="24" y="54.0234">Orange: Arrays of objects</text><text fill="#000000" font-family="sans-serif" font-size="14" lengthAdjust="spacing" textLength="210" x="24" y="70.5117">Blue Scalar or Arrays of scalars</text><text fill="#000000" font-family="sans-serif" font-size="14" lengthAdjust="spacing" textLength="354" x="24" y="87">⇢: Repeats an already defined element in the graph</text><rect fill="#F1F1F1" height="36.4883" rx="12.5" ry="12.5" style="stroke:#181818;stroke-width:1.5;" width="61" x="10" y="488.9321"/><text fill="#000000" font-family="sans-serif" font-size="14" lengthAdjust="spacing" textLength="41" x="20" y="512.4673">Query</text><rect fill="#FFA500" height="36.4883" rx="12.5" ry="12.5" style="stroke:#181818;stroke-width:1.5;" width="124" x="121" y="171.4414"/><text fill="#000000" font-family="sans-serif" font-size="14" lengthAdjust="spacing" textLength="104" x="131" y="194.9766">users: [User] ⇢</text><path d="M71,507.1763 L81,507.1763 C96,507.1763 96,189.6855 111,189.6855 L121,189.6855 " fill="none" style="stroke:#181818;stroke-width:1.0;"/><rect fill="#90EE90" height="36.4883" rx="12.5" ry="12.5" style="stroke:#181818;stroke-width:1.5;" width="250" x="121" y="227.9297"/><text fill="#000000" font-family="sans-serif" font-size="14" lengthAdjust="spacing" textLength="230" x="131" y="251.4648">user(id: ID, email: String): User! ⇢</text><rect fill="#ADD8E6" height="36.4883" rx="12.5" ry="12.5" style="stroke:#181818;stroke-width:1.5;" width="55" x="421" y="114.9531"/><text fill="#000000" font-family="sans-serif" font-size="14" lengthAdjust="spacing" textLength="35" x="431" y="138.4883">id: ID</text><path d="M371,246.1738 L381,246.1738 C396,246.1738 396,133.1973 411,133.1973 L421,133.1973 " fill="none" style="stroke:#181818;stroke-width:1.0;"/><rect fill="#ADD8E6" height="36.4883" rx="12.5" ry="12.5" style="stroke:#181818;stroke-width:1.5;" width="109" x="421" y="171.4414"/><text fill="#000000" font-family="sans-serif" font-size="14" lengthAdjust="spacing" textLength="89" x="431" y="194.9766">email: string!</text><path d="M371,246.1738 L381,246.1738 C396,246.1738 396,189.6855 411,189.6855 L421,189.6855 " fill="none" style="stroke:#181818;stroke-width:1.0;"/><rect fill="#ADD8E6" height="36.4883" rx="12.5" ry="12.5" style="stroke:#181818;stroke-width:1.5;" width="110" x="421" y="227.9297"/><text fill="#000000" font-family="sans-serif" font-size="14" lengthAdjust="spacing" textLength="90" x="431" y="251.4648">name: string!</text><path d="M371,246.1738 L381,246.1738 C396,246.1738 396,246.1738 411,246.1738 L421,246.1738 " fill="none" style="stroke:#181818;stroke-width:1.0;"/><rect fill="#FFA500" height="36.4883" rx="12.5" ry="12.5" style="stroke:#181818;stroke-width:1.5;" width="122" x="421" y="284.418"/><text fill="#000000" font-family="sans-serif" font-size="14" lengthAdjust="spacing" textLength="102" x="431" y="307.9531">posts: [Post] ⇢</text><path d="M371,246.1738 L381,246.1738 C396,246.1738 396,302.6621 411,302.6621 L421,302.6621 " fill="none" style="stroke:#181818;stroke-width:1.0;"/><rect fill="#FFA500" height="36.4883" rx="12.5" ry="12.5" style="stroke:#181818;stroke-width:1.5;" width="178" x="421" y="340.9063"/><text fill="#000000" font-family="sans-serif" font-size="14" lengthAdjust="spacing" textLength="158" x="431" y="364.4414">reactions: [Reaction] ⇢</text><path d="M371,246.1738 L381,246.1738 C396,246.1738 396,359.1504 411,359.1504 L421,359.1504 " fill="none" style="stroke:#181818;stroke-width:1.0;"/><path d="M71,507.1763 L81,507.1763 C96,507.1763 96,246.1738 111,246.1738 L121,246.1738 " fill="none" style="stroke:#181818;stroke-width:1.0;"/><rect fill="#ADD8E6" height="36.4883" rx="12.5" ry="12.5" style="stroke:#181818;stroke-width:1.5;" width="80" x="121" y="284.418"/><text fill="#000000" font-family="sans-serif" font-size="14" lengthAdjust="spacing" textLength="60" x="131" y="307.9531">me: User</text><path d="M71,507.1763 L81,507.1763 C96,507.1763 96,302.6621 111,302.6621 L121,302.6621 " fill="none" style="stroke:#181818;stroke-width:1.0;"/><rect fill="#FFA500" height="36.4883" rx="12.5" ry="12.5" style="stroke:#181818;stroke-width:1.5;" width="122" x="121" y="340.9063"/><text fill="#000000" font-family="sans-serif" font-size="14" lengthAdjust="spacing" textLength="102" x="131" y="364.4414">posts: [Post] ⇢</text><path d="M71,507.1763 L81,507.1763 C96,507.1763 96,359.1504 111,359.1504 L121,359.1504 " fill="none" style="stroke:#181818;stroke-width:1.0;"/><rect fill="#90EE90" height="36.4883" rx="12.5" ry="12.5" style="stroke:#181818;stroke-width:1.5;" width="136" x="121" y="630.1528"/><text fill="#000000" font-family="sans-serif" font-size="14" lengthAdjust="spacing" textLength="116" x="131" y="653.688">post(id: ID): Post!</text><rect fill="#ADD8E6" height="36.4883" rx="12.5" ry="12.5" style="stroke:#181818;stroke-width:1.5;" width="55" x="307" y="397.3945"/><text fill="#000000" font-family="sans-serif" font-size="14" lengthAdjust="spacing" textLength="35" x="317" y="420.9297">id: ID</text><path d="M257,648.397 L267,648.397 C282,648.397 282,415.6387 297,415.6387 L307,415.6387 " fill="none" style="stroke:#181818;stroke-width:1.0;"/><rect fill="#90EE90" height="36.4883" rx="12.5" ry="12.5" style="stroke:#181818;stroke-width:1.5;" width="127" x="307" y="453.8828"/><text fill="#000000" font-family="sans-serif" font-size="14" lengthAdjust="spacing" textLength="107" x="317" y="477.418">author: User! ⇢</text><path d="M257,648.397 L267,648.397 C282,648.397 282,472.127 297,472.127 L307,472.127 " fill="none" style="stroke:#181818;stroke-width:1.0;"/><rect fill="#90EE90" height="36.4883" rx="12.5" ry="12.5" style="stroke:#181818;stroke-width:1.5;" width="120" x="307" y="510.3711"/><text fill="#000000" font-family="sans-serif" font-size="14" lengthAdjust="spacing" textLength="100" x="317" y="533.9063">parent: Post ⇢</text><path d="M257,648.397 L267,648.397 C282,648.397 282,528.6152 297,528.6152 L307,528.6152 " fill="none" style="stroke:#181818;stroke-width:1.0;"/><rect fill="#ADD8E6" height="36.4883" rx="12.5" ry="12.5" style="stroke:#181818;stroke-width:1.5;" width="99" x="307" y="566.8594"/><text fill="#000000" font-family="sans-serif" font-size="14" lengthAdjust="spacing" textLength="79" x="317" y="590.3945">text: string!</text><path d="M257,648.397 L267,648.397 C282,648.397 282,585.1035 297,585.1035 L307,585.1035 " fill="none" style="stroke:#181818;stroke-width:1.0;"/><rect fill="#ADD8E6" height="36.4883" rx="12.5" ry="12.5" style="stroke:#181818;stroke-width:1.5;" width="163" x="307" y="623.3477"/><text fill="#000000" font-family="sans-serif" font-size="14" lengthAdjust="spacing" textLength="143" x="317" y="646.8828">createdAt: DateTime!</text><path d="M257,648.397 L267,648.397 C282,648.397 282,641.5918 297,641.5918 L307,641.5918 " fill="none" style="stroke:#181818;stroke-width:1.0;"/><rect fill="#FFA500" height="36.4883" rx="12.5" ry="12.5" style="stroke:#181818;stroke-width:1.5;" width="186" x="307" y="679.8359"/><text fill="#000000" font-family="sans-serif" font-size="14" lengthAdjust="spacing" textLength="166" x="317" y="703.3711">comments: [Message] ⇢</text><path d="M257,648.397 L267,648.397 C282,648.397 282,698.0801 297,698.0801 L307,698.0801 " fill="none" style="stroke:#181818;stroke-width:1.0;"/><rect fill="#FFA500" height="36.4883" rx="12.5" ry="12.5" style="stroke:#181818;stroke-width:1.5;" width="178" x="307" y="736.3242"/><text fill="#000000" font-family="sans-serif" font-size="14" lengthAdjust="spacing" textLength="158" x="317" y="759.8594">reactions: [Reaction] ⇢</text><rect fill="#ADD8E6" height="36.4883" rx="12.5" ry="12.5" style="stroke:#181818;stroke-width:1.5;" width="55" x="535" y="609.7373"/><text fill="#000000" font-family="sans-serif" font-size="14" lengthAdjust="spacing" textLength="35" x="545" y="633.2725">id: ID</text><path d="M485,754.5684 L495,754.5684 C510,754.5684 510,627.9814 525,627.9814 L535,627.9814 " fill="none" style="stroke:#181818;stroke-width:1.0;"/><rect fill="#ADD8E6" height="36.4883" rx="12.5" ry="12.5" style="stroke:#181818;stroke-width:1.5;" width="142" x="535" y="666.2256"/><text fill="#000000" font-family="sans-serif" font-size="14" lengthAdjust="spacing" textLength="122" x="545" y="689.7607">emotion: Emotion</text><text fill="#000000" font-family="sans-serif" font-size="14" lengthAdjust="spacing" textLength="28" x="730" y="643.54">LIKE</text><path d="M677,684.4697 L687,684.4697 C702,684.4697 702,638.249 717,638.249 L727,638.249 " fill="none" style="stroke:#181818;stroke-width:1.0;"/><text fill="#000000" font-family="sans-serif" font-size="14" lengthAdjust="spacing" textLength="50" x="730" y="662.0283">DISLIKE</text><path d="M677,684.4697 L687,684.4697 C702,684.4697 702,656.7373 717,656.7373 L727,656.7373 " fill="none" style="stroke:#181818;stroke-width:1.0;"/><text fill="#000000" font-family="sans-serif" font-size="14" lengthAdjust="spacing" textLength="35" x="730" y="680.5166">LOVE</text><path d="M677,684.4697 L687,684.4697 C702,684.4697 702,675.2256 717,675.2256 L727,675.2256 " fill="none" style="stroke:#181818;stroke-width:1.0;"/><text fill="#000000" font-family="sans-serif" font-size="14" lengthAdjust="spacing" textLength="47" x="730" y="699.0049">LAUGH</text><path d="M677,684.4697 L687,684.4697 C702,684.4697 702,693.7139 717,693.7139 L727,693.7139 " fill="none" style="stroke:#181818;stroke-width:1.0;"/><text fill="#000000" font-family="sans-serif" font-size="14" lengthAdjust="spacing" textLength="28" x="730" y="717.4932">CRY</text><path d="M677,684.4697 L687,684.4697 C702,684.4697 702,712.2021 717,712.2021 L727,712.2021 " fill="none" style="stroke:#181818;stroke-width:1.0;"/><text fill="#000000" font-family="sans-serif" font-size="14" lengthAdjust="spacing" textLength="35" x="730" y="735.9814">WOW</text><path d="M677,684.4697 L687,684.4697 C702,684.4697 702,730.6904 717,730.6904 L727,730.6904 " fill="none" style="stroke:#181818;stroke-width:1.0;"/><path d="M485,754.5684 L495,754.5684 C510,754.5684 510,684.4697 525,684.4697 L535,684.4697 " fill="none" style="stroke:#181818;stroke-width:1.0;"/><rect fill="#ADD8E6" height="36.4883" rx="12.5" ry="12.5" style="stroke:#181818;stroke-width:1.5;" width="163" x="535" y="749.9346"/><text fill="#000000" font-family="sans-serif" font-size="14" lengthAdjust="spacing" textLength="143" x="545" y="773.4697">createdAt: DateTime!</text><path d="M485,754.5684 L495,754.5684 C510,754.5684 510,768.1787 525,768.1787 L535,768.1787 " fill="none" style="stroke:#181818;stroke-width:1.0;"/><rect fill="#90EE90" height="36.4883" rx="12.5" ry="12.5" style="stroke:#181818;stroke-width:1.5;" width="165" x="535" y="806.4229"/><text fill="#000000" font-family="sans-serif" font-size="14" lengthAdjust="spacing" textLength="145" x="545" y="829.958">message: Message ⇢</text><path d="M485,754.5684 L495,754.5684 C510,754.5684 510,824.667 525,824.667 L535,824.667 " fill="none" style="stroke:#181818;stroke-width:1.0;"/><rect fill="#90EE90" height="36.4883" rx="12.5" ry="12.5" style="stroke:#181818;stroke-width:1.5;" width="107" x="535" y="862.9111"/><text fill="#000000" font-family="sans-serif" font-size="14" lengthAdjust="spacing" textLength="87" x="545" y="886.4463">user: User ⇢</text><path d="M485,754.5684 L495,754.5684 C510,754.5684 510,881.1553 525,881.1553 L535,881.1553 " fill="none" style="stroke:#181818;stroke-width:1.0;"/><path d="M257,648.397 L267,648.397 C282,648.397 282,754.5684 297,754.5684 L307,754.5684 " fill="none" style="stroke:#181818;stroke-width:1.0;"/><path d="M71,507.1763 L81,507.1763 C96,507.1763 96,648.397 111,648.397 L121,648.397 " fill="none" style="stroke:#181818;stroke-width:1.0;"/><!--MD5=[6342ccaf7730b3938268a0fcef6d16e7]
@startmindmap

* Query
**[#orange] users: [User] ⇢
**[#lightgreen] user(id: ID, email: String): User! ⇢
***[#lightblue] id: ID
***[#lightblue] email: string!
***[#lightblue] name: string!
***[#orange] posts: [Post] ⇢
***[#orange] reactions: [Reaction] ⇢
**[#lightblue] me: User
**[#orange] posts: [Post] ⇢
**[#lightgreen] post(id: ID): Post!
***[#lightblue] id: ID
***[#lightgreen] author: User! ⇢
***[#lightgreen] parent: Post ⇢
***[#lightblue] text: string!
***[#lightblue] createdAt: DateTime!
***[#orange] comments: [Message] ⇢
***[#orange] reactions: [Reaction] ⇢
****[#lightblue] id: ID
****[#lightblue] emotion: Emotion
*****_ LIKE
*****_ DISLIKE
*****_ LOVE
*****_ LAUGH
*****_ CRY
*****_ WOW
****[#lightblue] createdAt: DateTime!
****[#lightgreen] message: Message ⇢
****[#lightgreen] user: User ⇢

legend top left
  Green: Object
  Orange: Arrays of objects
  Blue Scalar or Arrays of scalars
  ⇢: Repeats an already defined element in the graph
endlegend

@endmindmap

PlantUML version 1.2022.7(Mon Aug 22 19:01:30 CEST 2022)
(GPL source distribution)
Java Runtime: Java(TM) SE Runtime Environment
JVM: Java HotSpot(TM) 64-Bit Server VM
Default Encoding: UTF-8
Language: en
Country: DE
--></g></svg>